# xmcd
#
# Track frame offsets:
#	150
#	15472
#	31648
#	47298
#	65338
#	81576
#	99108
#	116587
#	132436
#	148674
#	169009
#	187302
#	206203
#	224495
#	240974
#	257685
#	271900
#
# Disc length: 3861 seconds
#
# Revision: 0
# Processed by: cddbd v1.5.2PL0 Copyright (c) Steve Scherf et al.
# Submitted via: audiograbber 1.83.01
#
DISCID=ed0f1311
DTITLE=Various Artist - CDX Volume 495 - 3/15/2010
DYEAR=2010
DGENRE=Country
TTITLE0=Bucky Covington - A Father's Love (The Only Way He Knew How)
TTITLE1=Toby Keith - Every Dog Has Its Day
TTITLE2=Chuck Wicks - Hold That Thought
TTITLE3=Terri Clark - A Million Ways To Run
TTITLE4=Brad Paisley - Water
TTITLE5=Josh Thompson - Way Out Here
TTITLE6=Bridgette Tatum - That's Love Y'All
TTITLE7=Lathan Moore - Beautiful Girl
TTITLE8=Guy Penrod - Are You The One
TTITLE9=Scott Steele - Everyday Heroes
TTITLE10=Michael Lynne - Here We Are
TTITLE11=Chris Filer - Joy Ride
TTITLE12=Jimmy White and Jonell Mosser - Just What I Need
TTITLE13=Anthony Smith - Love Is Love Is Love Is
TTITLE14=Tony Douglas - More Afraid Of Livin'
TTITLE15=Martha Sides - Some Assembly Required
TTITLE16=Williams Riley - Sweet September
EXTD=
EXTT0=
EXTT1=
EXTT2=
EXTT3=
EXTT4=
EXTT5=
EXTT6=
EXTT7=
EXTT8=
EXTT9=
EXTT10=
EXTT11=
EXTT12=
EXTT13=
EXTT14=
EXTT15=
EXTT16=
PLAYORDER=
